<svg xmlns="http://www.w3.org/2000/svg" width="512" height="512" viewBox="0 0 512 512" role="img" aria-label="Gym Crew">
  <defs>
    <linearGradient id="g" x1="0" x2="1" y1="0" y2="1">
      <stop offset="0" stop-color="#5EEAD4"/>
      <stop offset="1" stop-color="#60A5FA"/>
    </linearGradient>
  </defs>
  <rect width="512" height="512" rx="96" fill="#0B0F14"/>
  <g fill="url(#g)">
    <path d="M164 184c0-13.3 10.7-24 24-24h24c13.3 0 24 10.7 24 24v16h40v-16c0-13.3 10.7-24 24-24h24c13.3 0 24 10.7 24 24v32c0 13.3-10.7 24-24 24h-24c-13.3 0-24-10.7-24-24v-8h-40v8c0 13.3-10.7 24-24 24h-24c-13.3 0-24-10.7-24-24v-32Z"/>
    <path d="M120 232h56v48h160v-48h56c13.3 0 24 10.7 24 24v64c0 13.3-10.7 24-24 24h-56v-48H176v48h-56c-13.3 0-24-10.7-24-24v-64c0-13.3 10.7-24 24-24Z"/>
  </g>
  <text x="256" y="420" text-anchor="middle" font-family="ui-sans-serif, system-ui, -apple-system" font-size="44" fill="#E6EEF8" opacity="0.9">Gym Crew</text>
</svg>



